<svg width="61" height="62" viewBox="0 0 61 62" fill="none" xmlns="http://www.w3.org/2000/svg">
<path d="M60.8997 32.7167C60.9365 32.1651 60.9659 31.4101 60.9659 30.8214C60.9659 30.1595 60.9394 29.4722 60.8817 28.6591C60.3308 21.0203 56.9076 13.8735 51.3001 8.65676C45.693 3.43999 38.3181 0.54035 30.6596 0.54126C23.0009 0.54217 15.6268 3.44356 10.0209 8.66165C4.41495 13.8798 0.993233 21.0274 0.44421 28.6663C-0.104814 36.3053 2.25959 43.8689 7.06169 49.8349C11.8638 55.801 18.7472 59.7273 26.3271 60.8231C33.9069 61.9193 41.6207 60.1042 47.9163 55.7429C54.2118 51.3816 58.622 44.7978 60.2595 37.3163C60.2595 37.3163 60.3559 36.9459 60.436 36.5072C60.6346 35.3824 60.8479 33.6882 60.8997 32.7167ZM30.6388 57.3583C25.4707 57.3598 20.4146 55.8525 16.0912 53.021C11.7679 50.1894 8.36537 46.1569 6.30148 41.4191C4.23759 36.6808 3.60216 31.4432 4.47316 26.349C5.34417 21.2548 7.6837 16.5259 11.2046 12.7427C14.7254 8.95944 19.2744 6.28663 24.2929 5.05238C29.3114 3.81813 34.5812 4.07615 39.4551 5.79475C44.329 7.51338 48.5951 10.6178 51.7296 14.7269C54.8642 18.8359 56.7304 23.7709 57.0996 28.9257C57.1445 29.5527 57.1753 30.183 57.1753 30.8214C57.1753 31.4598 57.1445 32.0897 57.0996 32.7167H33.9039C33.4867 33.4392 32.8427 34.0038 32.0719 34.323C31.301 34.6423 30.4464 34.6982 29.6405 34.4822C28.8346 34.2662 28.1225 33.7904 27.6147 33.1285C27.1068 32.4665 26.8315 31.6555 26.8315 30.8212C26.8315 29.9869 27.1068 29.1759 27.6147 28.514C28.1225 27.852 28.8346 27.3762 29.6405 27.1602C30.4464 26.9442 31.301 27.0002 32.0719 27.3194C32.8427 27.6386 33.4867 28.2033 33.9039 28.9257H53.2998C52.8277 23.2398 50.2374 17.9385 46.0416 14.0721C41.8461 10.2058 36.3511 8.05633 30.6455 8.04968C24.94 8.04302 19.4401 10.1796 15.2354 14.0362C11.0307 17.8928 8.42788 23.188 7.94262 28.8729C7.45737 34.5577 9.12506 40.2173 12.6153 44.7308C16.1056 49.2444 21.1638 52.2822 26.7879 53.2427C32.412 54.2028 38.1916 53.0158 42.9821 49.9166C47.7725 46.8173 51.2236 42.0317 52.6526 36.508H56.5561C55.2595 42.4171 51.983 47.7054 47.2694 51.4974C42.5559 55.2895 36.6883 57.3572 30.6388 57.3583ZM30.6388 19.4501C28.642 19.4476 26.6797 19.971 24.9494 20.9675C23.219 21.964 21.7815 23.3987 20.7815 25.127C19.7815 26.8554 19.2542 28.8166 19.2527 30.8134C19.2512 32.8103 19.7755 34.7723 20.7729 36.5022C21.7702 38.2319 23.2055 39.669 24.9343 40.6681C26.6632 41.6673 28.6246 42.1935 30.6214 42.1942C32.6183 42.195 34.58 41.6695 36.3095 40.6715C38.039 39.6731 39.475 38.2374 40.4734 36.508H44.6762C43.3564 39.7698 40.9434 42.4711 37.8507 44.1491C34.7577 45.827 31.1775 46.3772 27.7237 45.705C24.2698 45.0327 21.1572 43.1801 18.9193 40.4648C16.6814 37.7491 15.4576 34.3401 15.4576 30.8214C15.4576 27.3027 16.6814 23.8935 18.9193 21.1781C21.1572 18.4628 24.2698 16.6102 27.7237 15.938C31.1775 15.2658 34.7577 15.8158 37.8507 17.4937C40.9434 19.1716 43.3564 21.8729 44.6762 25.1348H40.4727C39.4772 23.407 38.0442 21.9718 36.3175 20.9739C34.5911 19.976 32.6322 19.4504 30.6381 19.4501H30.6388Z" fill="#FFB3C5"/>
</svg>
