<svg width="31" height="32" viewBox="0 0 31 32" fill="none" xmlns="http://www.w3.org/2000/svg">
<path d="M7.79843 27.25C7.55625 27.1834 7.3625 27.1168 7.12031 26.9837C6.87812 26.8505 6.68437 26.784 6.49062 26.6508C6.05468 26.3845 5.66718 26.0516 5.27968 25.6522C4.50468 24.9199 3.875 23.9213 3.39062 22.7229C2.90625 21.5911 2.61562 20.2596 2.56718 18.9947C2.51875 18.329 2.56718 17.7298 2.61562 17.0641C2.66406 16.7312 2.71249 16.4649 2.76093 16.132C2.80937 15.7992 2.90625 15.5329 2.95468 15.2L3.00312 16.132C3.00312 16.4649 3.05156 16.7312 3.1 17.0641C3.14843 17.6632 3.24531 18.2624 3.34218 18.795C3.53593 19.9268 3.82656 20.992 4.2625 21.9906C4.69843 22.9892 5.18281 23.9213 5.8125 24.7867C6.10312 25.1862 6.44218 25.5856 6.78125 25.9851C6.92656 26.1848 7.12031 26.3845 7.31406 26.5842L7.79843 27.25Z" fill="#42ADE2"/>
<path d="M7.65313 28.7865C7.50781 28.9576 7.31406 29.0431 7.12031 29.1287C6.92656 29.2142 6.78125 29.2998 6.5875 29.2998C6.24844 29.3853 5.86094 29.4708 5.47344 29.3853C4.74688 29.2998 3.97188 28.9576 3.34219 28.3588C2.66406 27.76 2.08281 26.8191 1.69531 25.7071C1.50156 25.1939 1.30781 24.5951 1.1625 23.9963C1.11406 23.7397 1.06562 23.3976 1.01719 23.0554C1.01719 22.7988 0.96875 22.5422 0.96875 22.2C1.11406 22.4566 1.21094 22.7132 1.30781 22.8843C1.45313 23.1409 1.55 23.3976 1.64688 23.5686C1.88906 23.9963 2.08281 24.424 2.325 24.7662C2.80938 25.536 3.29375 26.2203 3.875 26.7336C4.40781 27.2468 5.0375 27.6745 5.61875 28.0167C5.90938 28.1877 6.24844 28.2733 6.5875 28.4444C6.73281 28.5299 6.92656 28.5299 7.07188 28.6154C7.31406 28.701 7.45938 28.701 7.65313 28.7865" fill="#42ADE2"/>
<path d="M18.6 1.75C18.8422 1.81613 19.0359 1.94839 19.2781 2.08065C19.5203 2.2129 19.714 2.34516 19.9078 2.47742C20.3437 2.80806 20.7312 3.13871 21.1187 3.53548C21.8937 4.32903 22.5234 5.3871 22.9593 6.57742C23.3953 7.76774 23.6375 9.09032 23.6375 10.3468C23.6375 11.0081 23.589 11.6032 23.4922 12.2645C23.4437 12.5952 23.3953 12.8597 23.2984 13.1903C23.2015 13.521 23.1531 13.7855 23.0562 14.05L23.0078 13.1242C23.0078 12.7935 23.0078 12.529 22.9593 12.1984L22.814 10.4129C22.6687 9.28871 22.3781 8.16452 21.9906 7.10645C21.6031 6.04839 21.1187 5.12258 20.5375 4.2629C20.2468 3.8 19.9078 3.40323 19.6172 2.94032C19.4718 2.74194 19.2781 2.54355 19.0844 2.34516L18.6 1.75" fill="#42ADE2"/>
<path d="M22.8141 1.54999C23.0078 1.62111 23.1531 1.69224 23.2985 1.83449C23.4438 1.90562 23.6375 2.04788 23.7828 2.19013C24.0735 2.47464 24.3641 2.75914 24.6547 3.11478C25.1875 3.82604 25.6235 4.67957 25.8657 5.67534C26.1563 6.67111 26.2532 7.73802 26.1563 8.80492C26.1078 9.30281 26.011 9.80069 25.9141 10.2986C25.8657 10.512 25.7688 10.7965 25.7203 11.0098C25.6235 11.2232 25.575 11.4366 25.4297 11.65V10.2275C25.4297 9.72957 25.3813 9.3028 25.3813 8.87604C25.2844 7.9514 25.1875 7.09788 24.9453 6.31548C24.7032 5.46196 24.4125 4.75069 24.0735 3.9683C23.8797 3.61266 23.686 3.1859 23.4922 2.83027C23.3953 2.61689 23.2985 2.47464 23.1532 2.26126C23.0563 1.90562 22.911 1.69224 22.8141 1.54999" fill="#42ADE2"/>
<path d="M4.84382 9.00002C3.87507 9.45002 3.53601 10.65 3.97195 11.65L10.0751 24.8L13.4657 23.15L7.36257 9.95002C6.92663 8.95002 5.81257 8.50002 4.84382 9.00002" fill="#FFDD67"/>
<path d="M20.8767 22.45L24.4611 20.4068L17.4861 2.89359C17.0017 1.72605 15.8392 1.20065 14.822 1.78442C13.8532 2.3682 13.4173 3.76925 13.9017 4.99518L20.8767 22.45Z" fill="#FFDD67"/>
<path d="M14.8703 1.73712C14.7735 1.79621 14.6766 1.85529 14.5797 1.97347C15.5 1.67803 16.4688 2.20983 16.9047 3.27342L23.8797 21L24.5094 20.6455L17.5344 2.91889C17.05 1.67803 15.8875 1.14623 14.8703 1.73712" fill="#EBA352"/>
<path d="M13.4657 26.1L17.1953 23.9483L10.075 6.15305C9.59065 4.93181 8.33128 4.35027 7.31409 4.93181C6.2969 5.51335 5.86096 7.02536 6.34534 8.2466L13.4657 26.1Z" fill="#FFDD67"/>
<path d="M7.31406 5.00187C7.21719 5.06463 7.12031 5.1274 7.02344 5.25292C7.94375 4.93911 9.00938 5.50397 9.44531 6.69646L13.8531 18.6841L14.9187 19.5L10.075 6.31988C9.59062 4.93911 8.37969 4.37425 7.31406 5.00187" fill="#EBA352"/>
<path d="M16.6141 23.05L20.3438 20.898L13.2235 3.10018C12.7391 1.87876 11.4797 1.29714 10.4625 1.93693C9.44534 2.51856 9.0094 4.03079 9.49378 5.25221L16.6141 23.05Z" fill="#FFDD67"/>
<path d="M10.4625 1.89688C10.3656 1.95842 10.2688 2.08149 10.1719 2.14302C11.0922 1.83534 12.1578 2.38916 12.5938 3.55834L17.5828 16.85L18.6484 17.65L13.2234 3.18913C12.7391 1.83534 11.4797 1.28152 10.4625 1.89688" fill="#EBA352"/>
<path d="M4.84373 8.99998C4.74685 9.04998 4.64998 9.09998 4.5531 9.19998C5.42498 8.94998 6.34529 9.39998 6.73279 10.3L10.3656 18.15L11.4312 18.8L7.36248 9.99998C6.92654 8.94998 5.81248 8.49998 4.84373 8.99998Z" fill="#EBA352"/>
<path d="M28.9245 7.01362C27.6775 5.8835 25.6454 7.12125 24.6293 10.9959C23.9365 13.6867 23.8441 14.4939 22.3662 15.3011L21.5349 13.31C21.5349 13.31 8.41821 20.6826 8.92625 21.8665C8.92625 21.8665 10.4966 27.5709 13.1753 30.2079C17.1473 34.1902 26.4305 29.9388 26.8462 19.6601C27.0771 13.6867 30.2639 8.25136 28.9245 7.01362Z" fill="#FFDD67"/>
<path d="M28.9401 6.99497C28.6979 6.76926 28.4073 6.6564 28.1167 6.59998C28.1651 6.6564 28.262 6.6564 28.3104 6.71283C29.7636 8.01067 28.262 11.0013 27.4386 13.7099C26.7604 15.8541 26.1792 18.0548 26.2761 20.1991C26.6636 29.5661 18.3632 31.8621 13.8387 30.926C17.7704 33.5783 27.2933 30.2432 26.9058 20.4812C26.8089 18.337 27.3417 16.2491 28.0683 13.992C28.8433 11.2835 30.3448 8.29281 28.9401 6.99497Z" fill="#EBA352"/>
<path d="M23.0078 15C20.0047 15.35 15.5969 19.8 18.6969 24.65C16.4203 19.75 20.15 16.45 22.5235 15.3C22.7657 15.1 23.0078 15 23.0078 15" fill="#EBA352"/>
</svg>
